<svg width="24" height="24" viewBox="0 0 24 24" fill="none" xmlns="http://www.w3.org/2000/svg">
  <path d="M11 18V9H13V18H11Z" fill="#171717"/>
  <path d="M12 8C12.5523 8 13 7.55228 13 7C13 6.44772 12.5523 6 12 6C11.4477 6 11 6.44772 11 7C11 7.55228 11.4477 8 12 8Z" fill="#171717"/>
  <path fill-rule="evenodd" clip-rule="evenodd" d="M12 22C17.5228 22 22 17.5228 22 12C22 6.47715 17.5228 2 12 2C6.47715 2 2 6.47715 2 12C2 17.5228 6.47715 22 12 22ZM12 20C16.4183 20 20 16.4183 20 12C20 7.58172 16.4183 4 12 4C7.58172 4 4 7.58172 4 12C4 16.4183 7.58172 20 12 20Z" fill="#171717"/>
</svg>
